<mxfile
  host="Electron" 
  agent="Mozilla/5.0 (Macintosh; Intel Mac OS X 10_15_7) AppleWebKit/537.36 (KHTML, like Gecko) draw.io/25.0.2 Chrome/128.0.6613.186 Electron/32.2.5 Safari/537.36" 
  version="25.0.2"
  >
  <diagram
    name="-"
    >
    <mxGraphModel
      grid="1" 
      gridSize="10" 
      guides="1" 
      tooltips="1" 
      connect="1" 
      arrows="1" 
      fold="1" 
      page="1" 
      pageScale="1" 
      pageWidth="1" 
      pageHeight="1" 
      math="0" 
      shadow="0"
      >
      <root>
        <mxCell
          id="page"
          />
        <mxCell
          id="root" 
          parent="page"
          />
        <mxCell
          style="verticalAlign=top;aspect=fixed;align=center;spacingLeft=5;spacingRight=5;spacingBottom=5;strokeColor=none;" 
          id="shape_" 
          parent="root" 
          value=" " 
          vertex="1"
          >
          <mxGeometry
            as="geometry" 
            width="120" 
            height="120" 
            x="0" 
            y="0"
            />
          </mxCell>
        <mxCell
          style="rounded=1;whiteSpace=wrap;verticalAlign=top;align=center;shape=image;editableCssRules=.*;verticalLabelPosition=bottom;labelBackgroundColor=default;aspect=fixed;imageAspect=0;image=data:image/svg+xml,PHN2ZyB4bWxucz0iaHR0cDovL3d3dy53My5vcmcvMjAwMC9zdmciIHZpZXdCb3g9Ii0wLjUgLTAuNSAyOCAyOCIgaGVpZ2h0PSIyOCIgd2lkdGg9IjI4Ij4mI3hhOwkgIDxzdHlsZSB0eXBlPSJ0ZXh0L2NzcyI+LnN0MCB7IHN0b3AtY29sb3I6IHJnYigzNSwgMTQ5LCAyNTUpOyB9IC5zdDEgeyBzdG9wLWNvbG9yOiByZ2IoMCwgODcsIDIxMCk7IH0gPC9zdHlsZT4mI3hhOwk8ZGVmcz4mI3hhOwkJPGxpbmVhckdyYWRpZW50IGdyYWRpZW50VW5pdHM9InVzZXJTcGFjZU9uVXNlIiB5Mj0iMjUuMzA5IiB4Mj0iMjMuNDU0IiB5MT0iMy40NzQiIHgxPSIyLjAzOSIgaWQ9IkEiPiYjeGE7CQkJPHN0b3AgY2xhc3M9InN0MCIvPiYjeGE7CQkJPHN0b3AgY2xhc3M9InN0MSIgb2Zmc2V0PSIxIi8+JiN4YTsJCTwvbGluZWFyR3JhZGllbnQ+JiN4YTsJPC9kZWZzPiYjeGE7CTxwYXRoIGZpbGw9InVybCgjQSkiIGQ9Ik0yNi45OTYgMTIuNDIybC02LjY1LTUuNTE2YTEuNCAxLjQgMCAwIDAtMS40ODQtLjE5NmMtLjQ5LjIyNC0uNzk4LjcyOC0uNzk4IDEuMjc0djIuNTM0TDEzLjcxIDYuOTA2YTEuNCAxLjQgMCAwIDAtMS40ODQtLjE5NmMtLjQ5LjIyNC0uNzk4LjcyOC0uNzk4IDEuMjc0VjEyLjFIOC41ODZWLjljMC0uNzctLjYzLTEuNC0xLjQtMS40SC45Qy4xMy0uNS0uNS4xMy0uNS45djI1LjJjMCAuNzcuNjMgMS40IDEuNCAxLjRoMjUuMmMuNzcgMCAxLjQtLjYzIDEuNC0xLjRWMTMuNWExLjM5IDEuMzkgMCAwIDAtLjUwNC0xLjA3OHpNNS43NTggMjQuN0gyLjN2LTMuNWgzLjQ1OHptMC02LjNIMi4zdi0zLjVoMy40NTh6bTAtNi4zSDIuM1Y4LjgyNGgzLjQ1OHptMC02LjA3NkgyLjNWMi4zaDMuNDU4ek0yNC42ODYgMjQuN0g4LjU1OHYtMy41aDEuODQ4Yy43NyAwIDEuNC0uNjMgMS40LTEuNHMtLjYzLTEuNC0xLjQtMS40SDguNTU4di0zLjVIMTIuOGMuNzcgMCAxLjQtLjYzIDEuNC0xLjR2LTIuNTM0bDQuMzU0IDMuNjEyYTEuNCAxLjQgMCAwIDAgMS40ODQuMTk2Yy40OS0uMjI0Ljc5OC0uNzI4Ljc5OC0xLjI3NHYtMi41MzRsMy44NSAzLjE5MnptLTkuMzY2LTMuMTVhMS43NSAxLjc1IDAgMSAwIDAtMy41IDEuNzUgMS43NSAwIDEgMCAwIDMuNXptNi45My0xLjc1YTEuNzUgMS43NSAwIDEgMS0zLjUgMCAxLjc1IDEuNzUgMCAxIDEgMy41IDB6IiBmaWxsLXJ1bGU9ImV2ZW5vZGQiLz4mI3hhOzwvc3ZnPg;strokeColor=none;" 
          id="factory_sap_" 
          parent="shape_" 
          value=" " 
          vertex="1"
          >
          <mxGeometry
            as="geometry" 
            width="60" 
            height="60" 
            x="30" 
            y="30"
            />
          </mxCell>
        </root>
      </mxGraphModel>
    </diagram>
  </mxfile>